<?xml version="1.0" encoding="UTF-8"?>
<svg version="1.1" xmlns="http://www.w3.org/2000/svg" width="742" height="742">
<path d="M0 0 C14.88269228 -0.0703613 29.76537158 -0.12312012 44.64819527 -0.15543652 C51.55995397 -0.17084642 58.4716088 -0.19182211 65.38330078 -0.22631836 C72.06175019 -0.25963435 78.74006976 -0.27688695 85.4186058 -0.28463173 C87.95810512 -0.29014637 90.497599 -0.30091463 93.03705215 -0.31719017 C113.70549112 -0.44430764 131.94351724 -0.41094135 147.74609375 14.625 C160.89839159 28.48392042 163.3083197 46.43375494 163.27124023 64.7644043 C163.27563758 66.21788319 163.28094336 67.67135956 163.28707886 69.12483215 C163.29850388 72.234362 163.30403274 75.34382439 163.30496025 78.45337486 C163.30691755 83.38603655 163.32506205 88.31856086 163.34571838 93.25117493 C163.39468555 105.50349135 163.42571401 117.75584482 163.44702148 130.00823975 C163.46361349 139.53456417 163.48661802 149.0607695 163.53004223 158.5870145 C163.55162132 163.47408677 163.55989511 168.36093165 163.55764949 173.24804819 C163.55933559 176.30919364 163.57350087 179.37019492 163.59086227 182.43128777 C163.59638436 183.83232813 163.59702021 185.23339939 163.59192467 186.63444138 C163.50904828 212.12806279 171.44087619 234.73487756 189.23828125 253.33984375 C204.49798196 267.95019549 225.50884977 275.77747963 246.5 276.375 C270.3457144 275.69622348 291.95219304 265.78094167 308.3203125 248.55859375 C328.83611528 224.14076573 329.29360853 196.12353934 329.27439499 165.65302849 C329.27151981 160.87951159 329.28606641 156.10613765 329.30337524 151.33265686 C329.35001207 137.77216687 329.37433543 124.21168992 329.38085938 110.65112305 C329.38462923 103.13161374 329.40280161 95.61227001 329.43595374 88.09283167 C329.45271359 84.13202351 329.46208528 80.17151618 329.45301437 76.21067619 C329.35821813 30.82780016 329.35821813 30.82780016 345.4375 14 C358.1617165 2.28258178 372.66342182 -0.17124307 389.46484375 -0.11352539 C390.58767258 -0.11367142 391.7105014 -0.11381744 392.86735535 -0.1139679 C396.55742361 -0.11327443 400.24744062 -0.1055086 403.9375 -0.09765625 C406.50439425 -0.09579006 409.07128886 -0.0943671 411.63818359 -0.09336853 C417.6905156 -0.08994799 423.74282663 -0.08207642 429.79515076 -0.07201904 C436.69000303 -0.06081217 443.58485622 -0.05533596 450.47971535 -0.05032361 C464.65315332 -0.03989247 478.82657601 -0.02232164 493 0 C493.07037606 26.67077342 493.12312731 53.34153272 493.15543652 80.0123806 C493.17084328 92.39874773 493.19181302 104.78505685 493.22631836 117.17138672 C493.25641175 127.9792064 493.27561986 138.78698404 493.28226548 149.59484446 C493.28614429 155.30670487 493.29512761 161.01844506 493.31719017 166.73026657 C493.55903111 231.93240526 482.54404701 291.55496346 441 344 C440.25363281 344.9590625 439.50726562 345.918125 438.73828125 346.90625 C430.13438245 357.72076235 420.68626834 368.21129332 410 377 C409.07316406 377.8146875 408.14632813 378.629375 407.19140625 379.46875 C375.04247484 407.63743337 334.51519175 426.63034915 292.8125 435.25 C292.090625 435.40114258 291.36875 435.55228516 290.625 435.70800781 C276.15890888 438.51382146 261.58081787 439.38462799 246.875 439.3125 C246.07395844 439.31034485 245.27291687 439.3081897 244.44760132 439.30596924 C184.22253824 439.04772641 126.87976066 416.04047808 82 376 C81.19054932 375.28312012 81.19054932 375.28312012 80.36474609 374.55175781 C40.87093067 339.42298737 15.31134912 292.34856428 4.25 240.875 C4.05108154 239.958396 3.85216309 239.04179199 3.6472168 238.09741211 C0.36097052 221.97069774 -0.29040958 205.9884272 -0.22705078 189.58740234 C-0.22648512 187.50595607 -0.22680625 185.4245094 -0.22793579 183.34306335 C-0.22850425 177.75129649 -0.21683302 172.1596173 -0.20278788 166.56787062 C-0.19019503 160.70228501 -0.18910333 154.83669689 -0.18673706 148.97109985 C-0.18054724 137.89002398 -0.16417058 126.80898807 -0.14403808 115.72792971 C-0.12160087 103.10139778 -0.11066607 90.47486384 -0.10064721 77.84831691 C-0.07980187 51.89885587 -0.04467499 25.94943019 0 0 Z " fill="#838587" transform="translate(130,277)"/>
<path d="M0 0 C10.09058488 0 10.09058488 0 14.22265625 0.5859375 C25.57405 2.14343484 36.91126104 3.33090934 48.34765625 4.04296875 C49.01860447 4.08510561 49.68955269 4.12724247 50.38083267 4.1706562 C62.15196415 4.8971808 73.92094508 5.27650322 85.7109375 5.52734375 C86.55255117 5.54534279 87.39416485 5.56334183 88.26128197 5.58188629 C96.0461499 5.74568615 103.8312875 5.893659 111.61669922 6.02905273 C158.27336589 6.85379845 202.89785648 10.17821148 241.09375 39.84765625 C243.85172758 42.12306679 243.85172758 42.12306679 247 43 C248.76927452 42.15280643 248.76927452 42.15280643 250.51953125 40.75390625 C251.2043457 40.25020508 251.88916016 39.74650391 252.59472656 39.22753906 C253.3265918 38.67807617 254.05845703 38.12861328 254.8125 37.5625 C293.86183932 9.28425638 338.47965167 6.79583471 385.13195801 5.98345947 C392.89557454 5.84716994 400.65884433 5.69357408 408.421875 5.52734375 C409.25785595 5.50952599 410.0938369 5.49170822 410.9551506 5.47335052 C422.36911675 5.22172246 433.75544716 4.78418608 445.1484375 4.04296875 C446.35578552 3.96489487 447.56313354 3.88682098 448.80706787 3.80638123 C459.6484904 3.0470852 470.4152955 1.75735056 481.17529297 0.24365234 C485.10311351 -0.09515188 489.05759432 0 493 0 C493 46.53 493 93.06 493 141 C466.00047263 146.39990547 439.94913738 147.45619885 412.56622314 147.55297852 C383.67464005 147.55166962 383.67464005 147.55166962 354.82421875 148.88671875 C353.79981186 148.96144913 352.77540497 149.0361795 351.71995544 149.11317444 C316.18647204 152.07806842 280.48321002 164.99879126 256.62695312 192.58789062 C254.65828857 194.98877326 252.75778325 197.4286171 250.90234375 199.91796875 C248.89513376 202.11477147 247.90841161 202.6696459 245 203 C243.64508116 201.50067938 242.29111322 200.00049946 240.9375 198.5 C240.10734375 197.5821875 239.2771875 196.664375 238.421875 195.71875 C236.45804577 193.51419331 234.56949287 191.27329832 232.6875 189 C207.32438237 160.0802153 167.81874307 150.93065933 131.1574707 148.42822266 C122.14175667 147.89597828 113.13120211 147.76608695 104.1015625 147.69140625 C103.27412851 147.68442844 102.44669453 147.67745064 101.59418678 147.67026138 C93.88189023 147.6089729 86.1695146 147.5714144 78.45703125 147.54370117 C51.75611198 147.43816261 26.32118832 146.26423766 0 141 C0 94.47 0 47.94 0 0 Z " fill="#EB3136" transform="translate(130,0)"/>
<path d="M0 0 C1.12282883 -0.00014603 2.24565765 -0.00029205 3.4025116 -0.0004425 C7.09257986 0.00025096 10.78259687 0.00801679 14.47265625 0.01586914 C17.0395505 0.01773533 19.60644511 0.01915829 22.17333984 0.02015686 C28.22567185 0.0235774 34.27798288 0.03144897 40.33030701 0.04150635 C47.22515928 0.05271322 54.12001247 0.05818943 61.0148716 0.06320179 C75.18830957 0.07363292 89.36173226 0.09120375 103.53515625 0.11352539 C103.60553231 26.78429881 103.65828356 53.45505811 103.69059277 80.12590599 C103.70599953 92.51227312 103.72696927 104.89858224 103.76147461 117.28491211 C103.791568 128.09273179 103.81077611 138.90050943 103.81742173 149.70836985 C103.82130054 155.42023026 103.83028386 161.13197045 103.85234642 166.84379196 C104.09418736 232.04593065 93.07920326 291.66848885 51.53515625 344.11352539 C50.78878906 345.07258789 50.04242187 346.03165039 49.2734375 347.01977539 C40.6695387 357.83428774 31.22142459 368.32481872 20.53515625 377.11352539 C19.14490234 378.33555664 19.14490234 378.33555664 17.7265625 379.58227539 C-1.20603459 396.1708931 -22.83958724 408.31254533 -45.46484375 419.11352539 C-46.29790039 419.51361816 -47.13095703 419.91371094 -47.98925781 420.32592773 C-48.7778418 420.69282715 -49.56642578 421.05972656 -50.37890625 421.43774414 C-51.07193848 421.76218506 -51.7649707 422.08662598 -52.47900391 422.42089844 C-54.46484375 423.11352539 -54.46484375 423.11352539 -58.46484375 423.11352539 C-58.80908392 356.92412452 -59.11629184 290.7346181 -59.3785944 224.54483986 C-59.42421819 213.05366627 -59.4708994 201.56250063 -59.52203369 190.0713501 C-59.61413309 169.32982838 -59.69840043 148.58839242 -59.74126625 127.84670162 C-59.75861711 119.57036428 -59.78214605 111.29416848 -59.82373047 103.01791382 C-59.85855627 96.08211836 -59.87978901 89.14645624 -59.88267058 82.21057063 C-59.8844758 78.74482907 -59.89225353 75.2794206 -59.91819191 71.81376839 C-60.05626228 50.72797585 -59.48826198 30.29417602 -44.02734375 14.11352539 C-31.30312725 2.39610717 -16.80142193 -0.05771768 0 0 Z " fill="#838587" transform="translate(519.46484375,276.886474609375)"/>
<path d="M0 0 C0 46.53 0 93.06 0 141 C-26.99952737 146.39990547 -53.05086262 147.45619885 -80.43377686 147.55297852 C-109.32535995 147.55166962 -109.32535995 147.55166962 -138.17578125 148.88671875 C-139.20018814 148.96144913 -140.22459503 149.0361795 -141.28004456 149.11317444 C-177.13776975 152.10512298 -212.12019891 165.14693776 -236.40527344 192.58789062 C-238.42910758 194.98574233 -240.37702867 197.4332895 -242.29296875 199.91796875 C-244 202 -244 202 -246 203 C-246.39782887 182.34664732 -246.69723963 161.69392959 -246.88080692 141.03751755 C-246.96832361 131.44525532 -247.08753459 121.85537873 -247.2824707 112.26464844 C-247.45238024 103.90119397 -247.56169367 95.5394672 -247.59950441 87.17433476 C-247.62159829 82.74741548 -247.67315393 78.32543644 -247.79741096 73.90010834 C-248.52288976 47.03824234 -248.52288976 47.03824234 -244.35905075 40.37342834 C-240.53200174 36.34869961 -236.23041507 33.93176361 -231.11063957 31.88552094 C-227.89873968 30.53796513 -225.15938209 28.65795349 -222.25 26.75 C-187.07850737 7.43779914 -146.95954924 6.66417549 -107.86804199 5.98345947 C-100.10442546 5.84716994 -92.34115567 5.69357408 -84.578125 5.52734375 C-83.74214405 5.50952599 -82.9061631 5.49170822 -82.0448494 5.47335052 C-70.63088325 5.22172246 -59.24455284 4.78418608 -47.8515625 4.04296875 C-46.64421448 3.96489487 -45.43686646 3.88682098 -44.19293213 3.80638123 C-33.3515096 3.0470852 -22.5847045 1.75735056 -11.82470703 0.24365234 C-7.89688649 -0.09515188 -3.94240568 0 0 0 Z " fill="#B12C2F" transform="translate(623,0)"/>
<path d="M0 0 C0.33 0 0.66 0 1 0 C1.00238835 0.75315742 1.00477671 1.50631485 1.00723743 2.28229523 C1.06656881 20.67247723 1.14223354 39.06252709 1.23571491 57.45256805 C1.28053601 66.34613351 1.31998161 75.23966015 1.34643555 84.13330078 C1.36952714 91.8918328 1.40304793 99.65024054 1.44870156 107.40867376 C1.47248451 111.51050962 1.49131041 115.61222354 1.49761391 119.71412659 C1.50373322 123.5883809 1.52397407 127.46232382 1.55427551 131.33646202 C1.56294764 132.74554454 1.56680132 134.15466795 1.56500816 135.56377602 C1.54281365 161.0914072 9.40611243 183.69853638 27.23828125 202.33984375 C42.49798196 216.95019549 63.50884977 224.77747963 84.5 225.375 C108.3457144 224.69622348 129.95219304 214.78094167 146.3203125 197.55859375 C159.89168088 181.40600432 165.28480562 163.68473227 167 143 C167.33 143 167.66 143 168 143 C168.77701071 149.19561867 169.15089712 155.23206393 169.15821838 161.4723053 C169.16315636 162.38246019 169.16809434 163.29261509 169.17318195 164.23035043 C169.18844527 167.25651122 169.19688704 170.28265097 169.20532227 173.30883789 C169.21490958 175.48747947 169.22492016 177.66611923 169.23532104 179.84475708 C169.26228366 185.74278462 169.28333987 191.6408201 169.30332303 197.53887486 C169.32523607 203.70882809 169.35259868 209.87875712 169.37937927 216.0486908 C169.42923438 227.72502222 169.47419978 239.40136714 169.51740164 251.07772487 C169.56683549 264.3739485 169.62173077 277.67014659 169.67708123 290.96634686 C169.79079099 318.31087522 169.89765388 345.65542691 170 373 C166.62625059 374.13436143 163.25134279 375.26523777 159.8762207 376.39550781 C158.92505623 376.71536652 157.97389175 377.03522522 156.99390411 377.36477661 C150.78145707 379.4428112 144.59785765 381.37385087 138.1875 382.75 C137.28394775 382.94553467 136.38039551 383.14106934 135.44946289 383.3425293 C91.73508183 392.44014097 42.78949281 390.62307876 1 374 C0 373 0 373 -0.1241985 370.48411459 C-0.12362892 368.78505597 -0.12362892 368.78505597 -0.12304783 367.05167294 C-0.12503888 365.75037534 -0.12702993 364.44907774 -0.12908131 363.10834688 C-0.12622771 361.64530542 -0.1232821 360.18226413 -0.12025452 358.71922302 C-0.12069008 357.17980925 -0.12156472 355.64039555 -0.12284368 354.10098225 C-0.12509151 349.85044519 -0.12106346 345.59993308 -0.11606562 341.34939921 C-0.1117654 336.77336857 -0.11320724 332.19733946 -0.1139679 327.62130737 C-0.1144934 319.68626507 -0.11134381 311.75123096 -0.10573006 303.81619072 C-0.09761868 292.34331573 -0.09500021 280.87044471 -0.09374207 269.39756716 C-0.09155097 250.78563172 -0.08488934 232.17370065 -0.07543945 213.56176758 C-0.06626681 195.47713238 -0.05918526 177.39249838 -0.05493164 159.30786133 C-0.05466892 158.1939747 -0.05440619 157.08008807 -0.05413551 155.93244731 C-0.05283051 150.34465937 -0.0515668 144.75687143 -0.05032361 139.16908348 C-0.03994921 92.77938596 -0.02232935 46.3896932 0 0 Z " fill="#5F5F61" transform="translate(292,328)"/>
</svg>
